<svg width="1377" height="553" viewBox="0 0 1377 553" fill="none" xmlns="http://www.w3.org/2000/svg">
<path fill-rule="evenodd" clip-rule="evenodd" d="M1377 0H0C5.16959 6.28244 10.1968 12.964 15.4529 19.9497L15.4531 19.9499C57.4571 75.7762 114.075 151.026 374.74 197.226C568.862 231.633 732.468 318.221 881.992 397.356C1057.54 490.265 1213.68 572.901 1377 548.753V0Z" fill="#E66767"/>
<path fill-rule="evenodd" clip-rule="evenodd" d="M1377 6.10352e-05H185.991C190.462 4.43029 194.81 9.14197 199.357 14.0681C235.687 53.435 284.658 106.499 510.115 139.078C678.017 163.34 819.525 224.399 948.852 280.203C1100.69 345.72 1235.74 403.992 1377 386.963V6.10352e-05Z" fill="#E4DCC8"/>
</svg>
