<svg width="1440" height="1024" viewBox="0 0 1440 1024" fill="none" xmlns="http://www.w3.org/2000/svg">
<path fill-rule="evenodd" clip-rule="evenodd" d="M1440 0H63C68.1696 6.28244 73.1968 12.964 78.4529 19.9497L78.4531 19.9499C120.457 75.7762 177.075 151.026 437.74 197.226C631.862 231.633 795.468 318.221 944.992 397.356C1120.54 490.265 1276.68 572.901 1440 548.753V0Z" fill="#E66767"/>
<path fill-rule="evenodd" clip-rule="evenodd" d="M1440 6.10352e-05H248.991C253.462 4.43029 257.81 9.14197 262.357 14.0681C298.687 53.435 347.658 106.499 573.115 139.078C741.017 163.34 882.525 224.399 1011.85 280.203C1163.69 345.72 1298.74 403.992 1440 386.963V6.10352e-05Z" fill="#E4DCC8"/>
<path fill-rule="evenodd" clip-rule="evenodd" d="M666 1024H0V611C2.82469 611.863 5.662 612.726 8.50908 613.591C77.4976 634.567 152.222 657.287 192.039 726.949C278.419 878.07 325.465 945.555 455.805 964.59C536.225 976.334 613.416 995.325 666 1024Z" fill="#E66767"/>
<path fill-rule="evenodd" clip-rule="evenodd" d="M599.083 1024H0V652.497C2.54089 653.273 5.09313 654.049 7.65416 654.827C69.711 673.696 136.927 694.133 172.744 756.795C250.444 892.732 292.763 953.437 410.007 970.559C482.347 981.123 551.782 998.206 599.083 1024Z" fill="#E4DCC8"/>
</svg>
