<svg width="484" height="449" viewBox="0 0 484 449" fill="none" xmlns="http://www.w3.org/2000/svg">
<path d="M239.729 449C372.128 449 479.458 441.799 479.458 432.917C479.458 424.035 372.128 416.834 239.729 416.834C107.33 416.834 0 424.035 0 432.917C0 441.799 107.33 449 239.729 449Z" fill="#3F3D56"/>
<path d="M243.747 257.344H235.711V262.035H243.747V257.344Z" fill="#3F3D56"/>
<path d="M259.818 257.344H251.783V262.035H259.818V257.344Z" fill="#3F3D56"/>
<path d="M275.889 257.344H267.854V262.035H275.889V257.344Z" fill="#3F3D56"/>
<path d="M291.961 257.344H283.925V262.035H291.961V257.344Z" fill="#3F3D56"/>
<path d="M308.032 257.344H299.996V262.035H308.032V257.344Z" fill="#3F3D56"/>
<path d="M324.103 257.344H316.068V262.035H324.103V257.344Z" fill="#3F3D56"/>
<path d="M340.174 257.344H332.139V262.035H340.174V257.344Z" fill="#3F3D56"/>
<path d="M356.246 257.344H348.21V262.035H356.246V257.344Z" fill="#3F3D56"/>
<path d="M372.317 257.344H364.281V262.035H372.317V257.344Z" fill="#3F3D56"/>
<path d="M388.388 257.344H380.352V262.035H388.388V257.344Z" fill="#3F3D56"/>
<path d="M404.459 257.344H396.424V262.035H404.459V257.344Z" fill="#3F3D56"/>
<path d="M422.874 260.359C422.874 285.952 412.715 310.497 394.631 328.594C376.548 346.691 352.021 356.858 326.447 356.858C300.873 356.858 276.346 346.691 258.262 328.594C240.179 310.497 230.02 285.952 230.02 260.359H422.874Z" fill="#3F3D56"/>
<path d="M418.214 260.976L356.875 78.0048C368.88 73.9655 381.563 72.3341 394.198 73.2039C406.833 74.0737 419.173 77.4277 430.512 83.0739C441.852 88.7202 451.967 96.5481 460.281 106.11C468.594 115.672 474.943 126.78 478.963 138.799C479.612 140.735 480.202 142.685 480.724 144.635C487.038 168.346 484.089 193.574 472.476 215.186C460.864 236.798 441.461 253.172 418.214 260.976Z" fill="#3F3D56"/>
<path d="M420.531 275.437C427.188 275.437 432.584 270.037 432.584 263.375C432.584 256.713 427.188 251.313 420.531 251.313C413.874 251.313 408.477 256.713 408.477 263.375C408.477 270.037 413.874 275.437 420.531 275.437Z" fill="#3F3D56"/>
<path d="M297.988 285.489C297.1 285.489 296.248 285.842 295.62 286.471C294.992 287.099 294.64 287.951 294.64 288.84C294.64 289.729 294.992 290.581 295.62 291.209C296.248 291.838 297.1 292.191 297.988 292.191H355.576C356.464 292.191 357.316 291.838 357.944 291.209C358.572 290.581 358.924 289.729 358.924 288.84C358.924 287.951 358.572 287.099 357.944 286.471C357.316 285.842 356.464 285.489 355.576 285.489H297.988Z" fill="#6C63FF"/>
<path d="M406.468 434.927L394.478 435.371L351.28 342.401L362.209 337.315L406.468 434.927Z" fill="#3F3D56"/>
<path d="M246.426 434.927L258.416 435.371L301.614 342.401L290.684 337.315L246.426 434.927Z" fill="#3F3D56"/>
<path d="M376.335 381.317H277.229V388.019H376.335V381.317Z" fill="#3F3D56"/>
<path d="M359.327 74.5888C358.856 74.589 358.392 74.6996 357.971 74.9118C357.551 75.124 357.186 75.4318 356.906 75.8106C356.625 76.1894 356.438 76.6286 356.358 77.0931C356.278 77.5575 356.308 78.0342 356.445 78.4849L358.986 86.8173C359.22 87.5816 359.747 88.2218 360.453 88.5971C361.158 88.9724 361.983 89.0522 362.747 88.819C363.511 88.5857 364.151 88.0585 364.527 87.3532C364.903 86.6478 364.983 85.822 364.751 85.0572L362.211 76.7248C362.021 76.107 361.639 75.5662 361.12 75.1818C360.601 74.7973 359.972 74.5895 359.327 74.5888Z" fill="#6C63FF"/>
<path d="M226.002 262.035C225.203 262.035 224.436 262.353 223.871 262.918C223.306 263.484 222.988 264.251 222.988 265.051C222.988 265.85 223.306 266.617 223.871 267.183C224.436 267.748 225.203 268.066 226.002 268.066H234.707C235.506 268.066 236.273 267.748 236.838 267.183C237.403 266.617 237.72 265.85 237.72 265.051C237.72 264.251 237.403 263.484 236.838 262.918C236.273 262.353 235.506 262.035 234.707 262.035H226.002Z" fill="#6C63FF"/>
<path d="M297.987 239.921H261.827C261.6 239.921 261.379 239.927 261.158 239.947C258.795 240.116 256.584 241.174 254.969 242.908C253.354 244.641 252.455 246.923 252.452 249.293C252.45 251.663 253.344 253.947 254.955 255.684C256.567 257.421 258.775 258.484 261.137 258.657C261.365 258.677 261.593 258.684 261.827 258.684H297.987C300.474 258.684 302.858 257.696 304.616 255.936C306.375 254.177 307.362 251.791 307.362 249.302C307.362 246.814 306.375 244.428 304.616 242.669C302.858 240.909 300.474 239.921 297.987 239.921Z" fill="#FF6584"/>
<path opacity="0.2" d="M258.184 257.94C264.345 257.15 269.193 249.369 269.193 239.921H267.854C267.854 249.162 263.046 256.674 257.14 256.674V257.424L258.184 257.94Z" fill="black"/>
<path opacity="0.2" d="M271.202 258.014V256.674C277.11 256.674 281.916 249.158 281.916 239.921H283.255C283.255 249.897 277.848 258.014 271.202 258.014Z" fill="black"/>
<path opacity="0.2" d="M285.264 258.014V256.674C291.172 256.674 295.979 249.158 295.979 239.921H297.318C297.318 249.897 291.911 258.014 285.264 258.014Z" fill="black"/>
<path d="M363.612 239.921H327.451C327.224 239.921 327.003 239.927 326.782 239.947C324.419 240.116 322.208 241.174 320.593 242.908C318.978 244.641 318.079 246.923 318.076 249.293C318.074 251.663 318.968 253.947 320.579 255.684C322.191 257.421 324.399 258.484 326.762 258.657C326.989 258.677 327.217 258.684 327.451 258.684H363.612C366.098 258.684 368.483 257.696 370.241 255.936C371.999 254.177 372.987 251.791 372.987 249.302C372.987 246.814 371.999 244.428 370.241 242.669C368.483 240.909 366.098 239.921 363.612 239.921Z" fill="#FF6584"/>
<path opacity="0.2" d="M323.809 257.94C329.969 257.15 334.817 249.369 334.817 239.921H333.478C333.478 249.162 328.67 256.674 322.764 256.674V257.424L323.809 257.94Z" fill="black"/>
<path opacity="0.2" d="M336.826 258.014V256.674C342.734 256.674 347.54 249.158 347.54 239.921H348.88C348.88 249.897 343.473 258.014 336.826 258.014Z" fill="black"/>
<path opacity="0.2" d="M350.889 258.014V256.674C356.796 256.674 361.603 249.158 361.603 239.921H362.942C362.942 249.897 357.535 258.014 350.889 258.014Z" fill="black"/>
<path d="M295.341 149.827C290.602 147.265 284.743 150.059 282.382 154.594C279.509 160.11 281.89 166.742 285.24 171.457C288.72 176.357 293.444 180.401 295.768 186.063C297.991 191.392 298.254 197.336 296.512 202.841C294.769 208.345 291.134 213.054 286.251 216.13C284.071 217.509 286.085 220.99 288.278 219.601C293.068 216.607 296.857 212.253 299.162 207.094C301.467 201.935 302.183 196.206 301.219 190.638C300.73 187.75 299.798 184.956 298.455 182.353C296.999 179.697 295.245 177.217 293.226 174.959C289.741 170.83 285.353 166.279 285.134 160.535C285.094 159.79 285.146 159.043 285.289 158.311C285.393 157.799 285.548 157.299 285.752 156.819C286.24 155.787 286.963 154.884 287.863 154.183C288.698 153.517 289.685 153.069 290.737 152.881C291.618 152.75 292.518 152.896 293.313 153.298C295.588 154.528 297.619 151.058 295.341 149.827Z" fill="#E6E6E6"/>
<path d="M355.798 174.148C353.78 173.499 351.624 173.41 349.56 173.89C347.495 174.37 345.599 175.402 344.074 176.875C343.286 177.686 342.702 178.673 342.371 179.755C342.04 180.837 341.971 181.983 342.17 183.096C342.553 185.533 344.09 187.697 345.758 189.441C349.021 192.853 353.588 195.06 356.324 198.977C357.537 200.647 358.299 202.602 358.534 204.652C358.675 206.495 358.337 208.343 357.554 210.016C355.513 214.168 351.461 216.992 347.187 218.81C346.189 219.235 345.968 220.708 346.467 221.561C346.745 222.011 347.186 222.336 347.697 222.47C348.209 222.605 348.752 222.537 349.215 222.282C357.079 218.936 364.355 211.443 362.186 202.237C361.045 197.394 357.548 193.976 353.782 191.005C351.912 189.633 350.145 188.124 348.497 186.492C347.195 185.108 345.842 183.218 346.081 181.342C346.177 180.69 346.496 180.091 346.984 179.648C347.575 179.107 348.247 178.66 348.974 178.324C349.866 177.896 350.834 177.649 351.822 177.598C352.81 177.547 353.798 177.692 354.73 178.025C355.243 178.162 355.79 178.091 356.252 177.829C356.715 177.566 357.055 177.132 357.201 176.621C357.332 176.107 357.259 175.563 356.997 175.102C356.736 174.641 356.306 174.299 355.798 174.148V174.148Z" fill="#E6E6E6"/>
<path d="M325.212 116.953C324.014 115.93 322.503 115.347 320.929 115.303C319.436 115.331 317.985 115.801 316.759 116.652C313.988 118.666 312.028 121.605 311.232 124.938C309.202 132.721 311.85 141.109 315.53 147.963C317.39 151.428 319.557 154.717 321.429 158.174C323.234 161.482 324.621 165.002 325.555 168.652C327.461 176.138 327.632 183.961 326.053 191.522C324.445 199.049 321.062 206.501 315.308 211.694C314.931 212.071 314.72 212.582 314.72 213.116C314.72 213.649 314.931 214.16 315.308 214.537C315.685 214.914 316.196 215.126 316.728 215.126C317.261 215.126 317.772 214.914 318.149 214.537C323.256 209.928 326.672 203.606 328.734 197.104C331.009 189.762 331.674 182.014 330.684 174.391C330.237 170.594 329.373 166.859 328.109 163.252C326.739 159.618 325.027 156.122 322.998 152.812C319.222 146.422 315.202 139.96 314.655 132.352C314.386 128.61 314.854 124.711 317.167 121.702C317.04 121.867 317.268 121.582 317.269 121.581C317.409 121.413 317.555 121.249 317.705 121.09C317.992 120.782 318.301 120.495 318.628 120.23C318.559 120.286 318.381 120.404 318.705 120.18C318.866 120.068 319.03 119.961 319.199 119.862C319.336 119.781 319.477 119.709 319.618 119.635C319.701 119.592 319.786 119.552 319.872 119.514C319.676 119.598 319.687 119.599 319.905 119.517C320.062 119.467 320.84 119.299 320.408 119.354C320.552 119.336 320.697 119.327 320.842 119.325C320.904 119.324 321.446 119.352 321.181 119.323C320.872 119.289 321.426 119.378 321.43 119.379C321.603 119.421 321.774 119.475 321.94 119.541C321.522 119.374 322.625 119.995 322.371 119.796C322.755 120.158 323.263 120.359 323.791 120.359C324.319 120.359 324.827 120.158 325.212 119.796C325.905 119.103 326.073 117.623 325.212 116.953L325.212 116.953Z" fill="#E6E6E6"/>
<path d="M170.95 419.097L155.804 423.118L127.985 294.44L159.204 291.656L170.95 419.097Z" fill="#FFB9B9"/>
<path d="M101.653 421.075L86.1592 423.418L72.5422 292.469L103.878 293.112L101.653 421.075Z" fill="#FFB9B9"/>
<path d="M93.6757 234.74L95.1064 261.466C95.1591 262.449 94.9997 263.432 94.6392 264.348C94.2787 265.264 93.7255 266.091 93.0171 266.774C92.3088 267.457 91.4618 267.98 90.5338 268.306C89.6058 268.633 88.6185 268.756 87.6388 268.667C86.0377 268.521 84.5386 267.817 83.4036 266.677C82.2685 265.538 81.5697 264.035 81.4292 262.433L78.8391 232.884L58.4387 163.596L59.0569 119.053L83.1665 120.291L93.6757 234.74Z" fill="#FFB9B9"/>
<path d="M106.658 300.317C94.5812 296.121 80.5689 295.296 64.6207 297.842C66.8824 271.031 68.1923 246.133 67.0934 226.079H149.313L106.658 300.317Z" fill="#2F2E41"/>
<path d="M164.15 299.698C151.703 306.288 133.697 309.442 112.84 310.834L86.8756 227.935L150.55 226.698L164.15 299.698Z" fill="#2F2E41"/>
<path d="M196.201 432.55L151.41 434.209C145.672 434.422 145.369 429.491 146.452 423.848L151.755 408.695C163.695 420.4 164.819 421.055 169.937 404.404L185.557 416.75L197.119 418.734C198.738 419.011 200.207 419.854 201.265 421.111C202.323 422.369 202.902 423.961 202.899 425.605C202.896 427.404 202.197 429.133 200.949 430.428C199.7 431.722 197.998 432.483 196.201 432.55Z" fill="#2F2E41"/>
<path d="M128.361 432.55L83.5693 434.209C77.8315 434.422 77.5289 429.491 78.6121 423.848L83.9151 408.695C95.8543 420.4 96.9787 421.055 102.097 404.404L117.717 416.75L129.279 418.734C130.898 419.011 132.367 419.854 133.425 421.111C134.483 422.369 135.062 423.961 135.059 425.605C135.056 427.404 134.357 429.133 133.108 430.428C131.859 431.722 130.158 432.483 128.361 432.55Z" fill="#2F2E41"/>
<path d="M138.804 53.4766C152.119 53.4766 162.913 42.6744 162.913 29.3493C162.913 16.0242 152.119 5.22209 138.804 5.22209C125.489 5.22209 114.694 16.0242 114.694 29.3493C114.694 42.6744 125.489 53.4766 138.804 53.4766Z" fill="#FFB9B9"/>
<path d="M126.44 72.0359L98.0031 63.3752L117.167 34.9169L138.804 44.1968L126.44 72.0359Z" fill="#FFB9B9"/>
<path d="M153.022 233.503C123.79 240.08 91.3386 237.471 63.3842 229.791C70.0785 192.435 66.8466 152.309 60.2933 119.672C55.1639 94.126 68.6951 72.6896 91.2029 62.1377C96.041 60.4014 101.074 59.2673 106.189 58.7607C121.977 57.3608 135.87 69.2081 137.517 84.9844L153.022 233.503Z" fill="#6C63FF"/>
<path d="M76.9846 132.045L56.5841 129.57L62.7662 97.4008H76.9846V132.045Z" fill="#6C63FF"/>
<path d="M138.467 33.1696L134.773 31.5269C133.936 31.1558 133.029 30.9713 132.114 30.9861C131.198 31.0009 130.297 31.2147 129.473 31.6127C128.648 32.0107 127.92 32.5833 127.339 33.2909C126.758 33.9984 126.337 34.8241 126.106 35.7105L120.959 45.0176L108.139 42.9868L108.587 23.2846C109.171 19.5615 110.512 15.9978 112.527 12.8143C114.543 9.63072 117.189 6.89498 120.304 4.77639C123.419 2.65781 126.934 1.20146 130.634 0.497487C134.334 -0.206485 138.138 -0.143099 141.813 0.683721L142.163 0.762941C148.421 2.17982 156.546 6.77835 160.788 11.6056L168.691 20.5998C169.065 21.0265 169.316 21.5478 169.415 22.1071C169.515 22.6663 169.459 23.2422 169.254 23.772C169.049 24.3018 168.704 24.7653 168.254 25.1122C167.804 25.459 167.268 25.6759 166.704 25.7393L155.896 26.9328L138.467 33.1696Z" fill="#2F2E41"/>
<path d="M218.436 197.712L204.592 209.864C204.391 210.039 204.129 210.128 203.864 210.111C203.598 210.093 203.35 209.971 203.175 209.77C202.999 209.57 202.91 209.308 202.928 209.042C202.945 208.777 203.067 208.528 203.267 208.353L217.111 196.201L214.461 193.178L200.617 205.33C200.417 205.505 200.155 205.594 199.89 205.577C199.624 205.559 199.376 205.437 199.201 205.236C199.025 205.036 198.936 204.774 198.953 204.508C198.971 204.243 199.093 203.994 199.293 203.819L213.137 191.667L210.487 188.644L196.643 200.796C196.544 200.883 196.429 200.95 196.304 200.992C196.179 201.035 196.047 201.052 195.915 201.044C195.783 201.035 195.655 201.001 195.536 200.942C195.418 200.884 195.312 200.803 195.225 200.704C195.138 200.604 195.071 200.489 195.029 200.364C194.987 200.239 194.969 200.106 194.978 199.975C194.987 199.843 195.021 199.714 195.08 199.596C195.138 199.477 195.219 199.371 195.319 199.284L209.163 187.132L205.851 183.354L186.287 200.527C184.541 202.06 183.374 204.148 182.981 206.439C182.589 208.731 182.995 211.088 184.131 213.116L125.065 264.963L130.364 271.008L189.392 219.195C191.192 220.617 193.434 221.364 195.727 221.305C198.02 221.246 200.22 220.385 201.946 218.872L221.747 201.49L218.436 197.712Z" fill="#E6E6E6"/>
<path d="M151.168 234.74L152.598 261.466C152.651 262.449 152.492 263.432 152.131 264.348C151.771 265.264 151.218 266.091 150.509 266.774C149.801 267.457 148.954 267.98 148.026 268.306C147.098 268.633 146.111 268.756 145.131 268.667C143.53 268.521 142.031 267.817 140.896 266.677C139.761 265.538 139.062 264.035 138.921 262.433L136.331 232.884L115.931 163.596L116.549 119.053L140.658 120.291L151.168 234.74Z" fill="#FFB9B9"/>
<path d="M142.513 127.096C135.177 120.054 125.494 119.795 114.694 122.765V89.5176C114.694 85.5375 116.274 81.7204 119.087 78.9061C121.899 76.0917 125.713 74.5106 129.69 74.5106C131.521 74.5106 133.333 74.8768 135.02 75.5878C136.707 76.2988 138.235 77.3401 139.514 78.6506C140.793 79.961 141.797 81.5142 142.468 83.2187C143.138 84.9232 143.462 86.7447 143.419 88.5761L142.513 127.096Z" fill="#6C63FF"/>
</svg>
